<svg width="207" height="216" viewBox="0 0 207 216" fill="none" xmlns="http://www.w3.org/2000/svg">
<path opacity="0.25" d="M158 144C158 197.572 114.572 241 61 241C7.42838 241 -36 197.572 -36 144C-36 90.4284 7.42838 47 61 47C114.572 47 158 90.4284 158 144ZM-12.8488 144C-12.8488 184.786 20.2145 217.849 61 217.849C101.786 217.849 134.849 184.786 134.849 144C134.849 103.214 101.786 70.1512 61 70.1512C20.2145 70.1512 -12.8488 103.214 -12.8488 144Z" fill="white"/>
<path opacity="0.25" d="M207 142.5C207 221.201 143.201 285 64.5 285C-14.2006 285 -78 221.201 -78 142.5C-78 63.7994 -14.2006 0 64.5 0C143.201 0 207 63.7994 207 142.5ZM-46.7195 142.5C-46.7195 203.925 3.07515 253.72 64.5 253.72C125.925 253.72 175.72 203.925 175.72 142.5C175.72 81.0751 125.925 31.2805 64.5 31.2805C3.07515 31.2805 -46.7195 81.0751 -46.7195 142.5Z" fill="white"/>
<path opacity="0.25" d="M112 148C112 181.689 84.6894 209 51 209C17.3106 209 -10 181.689 -10 148C-10 114.311 17.3106 87 51 87C84.6894 87 112 114.311 112 148ZM4.55902 148C4.55902 173.649 25.3514 194.441 51 194.441C76.6486 194.441 97.441 173.649 97.441 148C97.441 122.351 76.6486 101.559 51 101.559C25.3514 101.559 4.55902 122.351 4.55902 148Z" fill="white"/>
</svg>
